<svg width="32" height="32" viewBox="0 0 32 32" fill="none" xmlns="http://www.w3.org/2000/svg">
<path d="M21.6875 18.875C22.2044 18.875 22.625 19.2899 22.625 19.8H24.5C24.5 18.5832 23.7162 17.5458 22.625 17.1606V15.125H20.75V17.1612C19.6588 17.5482 18.875 18.5903 18.875 19.8125C18.875 21.3633 20.1367 22.625 21.6875 22.625C22.2044 22.625 22.625 23.0456 22.625 23.5625C22.625 24.0794 22.2044 24.5 21.6875 24.5C21.1706 24.5 20.75 24.0794 20.75 23.5625H18.875C18.875 24.7847 19.6588 25.8268 20.75 26.2138V28.2375H22.625V26.2138C23.7162 25.8268 24.5 24.7847 24.5 23.5625C24.5 22.0117 23.2383 20.75 21.6875 20.75C21.1706 20.75 20.75 20.3294 20.75 19.8125C20.75 19.2956 21.1706 18.875 21.6875 18.875Z" fill="black"/>
<path d="M21.6875 11.375C21.3714 11.375 21.0589 11.3901 20.75 11.4181V5.625C20.75 3.99931 19.5907 2.52437 17.4859 1.47194C15.5875 0.52275 13.0844 0 10.4375 0C7.78525 0 5.26206 0.521688 3.33269 1.46888C1.18363 2.52406 0 4 0 5.625V22.625C0 24.25 1.18363 25.726 3.33269 26.7811C5.26206 27.7283 7.78525 28.25 10.4375 28.25C11.5006 28.25 12.5404 28.1651 13.5384 27.9998C15.4266 30.4318 18.3772 32 21.6875 32C27.3738 32 32 27.3738 32 21.6875C32 16.0012 27.3738 11.375 21.6875 11.375ZM4.15906 3.152C5.812 2.34044 8.10038 1.875 10.4375 1.875C15.4099 1.875 18.875 3.85131 18.875 5.625C18.875 7.39869 15.4099 9.375 10.4375 9.375C8.10038 9.375 5.812 8.90956 4.15906 8.098C2.7075 7.38537 1.875 6.484 1.875 5.625C1.875 4.766 2.7075 3.86462 4.15906 3.152ZM1.875 8.89156C2.29525 9.21262 2.782 9.51075 3.33269 9.78113C5.26206 10.7283 7.78525 11.25 10.4375 11.25C13.0844 11.25 15.5875 10.7273 17.4859 9.77806C18.0083 9.51681 18.4723 9.22956 18.875 8.92044V11.7648C17.0065 12.2951 15.3526 13.3404 14.0764 14.7366C12.9341 14.9943 11.7116 15.125 10.4375 15.125C8.10038 15.125 5.812 14.6596 4.15906 13.848C2.7075 13.1354 1.875 12.234 1.875 11.375V8.89156ZM1.875 14.6416C2.29525 14.9626 2.782 15.2607 3.33269 15.5311C5.26206 16.4783 7.78525 17 10.4375 17C11.1613 17 11.8714 16.9612 12.5638 16.8851C11.9478 18.0507 11.5487 19.3476 11.4205 20.7222C11.0948 20.7401 10.7664 20.75 10.4375 20.75C8.10038 20.75 5.812 20.2846 4.15906 19.473C2.7075 18.7604 1.875 17.859 1.875 17V14.6416ZM10.4375 26.375C8.10038 26.375 5.812 25.9096 4.15906 25.098C2.7075 24.3854 1.875 23.484 1.875 22.625V20.2665C2.29525 20.5876 2.782 20.8857 3.33269 21.1561C5.26206 22.1033 7.78525 22.625 10.4375 22.625C10.7644 22.625 11.0912 22.6168 11.4159 22.6007C11.5309 23.905 11.8896 25.1401 12.4462 26.2606C11.7925 26.336 11.1211 26.375 10.4375 26.375ZM21.6875 30.125C17.0351 30.125 13.25 26.3399 13.25 21.6875C13.25 17.0351 17.0351 13.25 21.6875 13.25C26.3399 13.25 30.125 17.0351 30.125 21.6875C30.125 26.3399 26.3399 30.125 21.6875 30.125Z" fill="black"/>
</svg>
