<svg width="30" height="32" viewBox="0 0 30 32" fill="none" xmlns="http://www.w3.org/2000/svg">
<path d="M29.2575 17.1204V11.3945L25.7962 10.5704C25.6401 10.1135 25.4543 9.66584 25.2407 9.2314L27.106 6.20033L23.0571 2.15148L20.0261 4.01679C19.5917 3.80318 19.144 3.61746 18.6871 3.46132L17.8631 0H12.1372L11.3131 3.46132C10.8562 3.61746 10.4085 3.80318 9.97413 4.01679L6.94307 2.15148L2.89415 6.20033L4.7594 9.2314C4.5458 9.66584 4.36007 10.1135 4.20393 10.5704L0.742676 11.3944V17.1203L4.204 17.9445C4.36013 18.4013 4.54586 18.849 4.75947 19.2834L2.88541 22.3288L5.69279 25.0178C5.39535 25.9092 5.24168 26.8467 5.24168 27.7984V32H24.8852V27.7984C24.8852 26.8792 24.7411 25.9734 24.4634 25.1094L27.0922 22.2921L25.2408 19.2835C25.4544 18.8491 25.6401 18.4014 25.7963 17.9445L29.2575 17.1204ZM22.9843 30.099H7.14267V27.7984C7.14267 26.48 7.51831 25.1962 8.22903 24.0857C9.50129 22.0977 11.6699 20.9109 14.0301 20.9109H16.0968C18.457 20.9109 20.6256 22.0977 21.8979 24.0856C22.6086 25.1961 22.9843 26.48 22.9843 27.7984V30.099ZM15.0635 18.9307C12.6395 18.9307 10.6674 16.9586 10.6674 14.5347C10.6674 12.1107 12.6395 10.1386 15.0635 10.1386C17.4874 10.1386 19.4595 12.1107 19.4595 14.5347C19.4595 16.9586 17.4874 18.9307 15.0635 18.9307ZM24.7139 22.0545L23.6086 23.239C23.5725 23.1794 23.5367 23.1196 23.499 23.0609C22.4088 21.3574 20.8024 20.116 18.9529 19.4836C20.418 18.3296 21.3604 16.5401 21.3604 14.5347C21.3604 11.0625 18.5356 8.23762 15.0634 8.23762C11.5912 8.23762 8.76637 11.0625 8.76637 14.5347C8.76637 16.5401 9.70876 18.3296 11.1739 19.4836C9.32444 20.116 7.71798 21.3574 6.62776 23.0609C6.59848 23.1067 6.57092 23.1533 6.54253 23.1995L5.30879 22.0178L6.95245 19.3468L5.7092 16.3488L2.64367 15.6188V12.8959L5.70926 12.166L6.95251 9.16803L5.30004 6.48282L7.22543 4.55743L9.9107 6.2099L12.9087 4.96665L13.6387 1.90099H16.3616L17.0915 4.96659L20.0895 6.2099L22.7747 4.55743L24.7001 6.48282L23.0476 9.16803L24.2909 12.166L27.3565 12.8959V15.6188L24.2909 16.3488L23.0476 19.3468L24.7139 22.0545Z" fill="black"/>
</svg>
