<svg width="32" height="32" viewBox="0 0 32 32" fill="none" xmlns="http://www.w3.org/2000/svg">
<path d="M27.3125 7.5H25.4375H23.5625C22.2197 7.5 20.9419 8.07594 20.0519 9.08125C19.8243 9.31438 19.9813 9.149 16.9893 13.125C16.7343 13.125 15.2139 13.125 15.0107 13.125C12.0121 9.14025 12.1756 9.31412 11.948 9.08119C11.058 8.07594 9.78019 7.5 8.4375 7.5H6.5625H4.6875C2.10281 7.5 0 9.60281 0 12.1875V19.6875C0 20.9097 0.783687 21.9524 1.875 22.3394V32H11.25V17.485L12.1987 18.75C13.0204 18.75 18.9123 18.75 19.8013 18.75L20.75 17.485V32H30.125V22.3394C31.2162 21.9524 32 20.9097 32 19.6875V12.1875C32 9.60281 29.8972 7.5 27.3125 7.5ZM13.2863 16.875H13.1362L9.375 11.86V30.125H7.5V20.6875H5.625V30.125H3.75L3.74981 20.625H2.81231C2.2955 20.625 1.875 20.2044 1.875 19.6875V12.1875C1.875 10.6367 3.13669 9.375 4.6875 9.375H8.4375C9.24912 9.375 10.0214 9.72587 10.5561 10.3376C10.7586 10.5548 10.3398 10.0343 13.6023 14.3719C13.3011 14.8198 13.125 15.3584 13.125 15.9375C13.125 16.2661 13.1822 16.5816 13.2863 16.875ZM30.125 19.6875C30.125 20.2044 29.7045 20.625 29.1877 20.625H28.25V30.125H26.375V20.6875H24.5V30.125H22.625V11.86L18.8638 16.875H15.9376H15.9375C15.4206 16.875 15 16.4544 15 15.9375C15 15.4206 15.4206 15 15.9375 15C16.3655 15 17.1783 15 17.9268 15C19.5612 12.8232 21.5614 10.1425 21.4438 10.3377C21.9787 9.72587 22.7509 9.375 23.5625 9.375H27.3125C28.8633 9.375 30.125 10.6367 30.125 12.1875V19.6875Z" fill="black"/>
<path d="M6.5625 0C4.49475 0 2.8125 1.68225 2.8125 3.75C2.8125 5.81775 4.49475 7.5 6.5625 7.5C8.63025 7.5 10.3125 5.81775 10.3125 3.75C10.3125 1.68225 8.63025 0 6.5625 0ZM6.5625 5.625C5.52863 5.625 4.6875 4.78387 4.6875 3.75C4.6875 2.71613 5.52863 1.875 6.5625 1.875C7.59637 1.875 8.4375 2.71613 8.4375 3.75C8.4375 4.78387 7.59637 5.625 6.5625 5.625Z" fill="black"/>
<path d="M25.4375 0C23.3698 0 21.6875 1.68225 21.6875 3.75C21.6875 5.81775 23.3698 7.5 25.4375 7.5C27.5052 7.5 29.1875 5.81775 29.1875 3.75C29.1875 1.68225 27.5052 0 25.4375 0ZM25.4375 5.625C24.4036 5.625 23.5625 4.78387 23.5625 3.75C23.5625 2.71613 24.4036 1.875 25.4375 1.875C26.4714 1.875 27.3125 2.71613 27.3125 3.75C27.3125 4.78387 26.4714 5.625 25.4375 5.625Z" fill="black"/>
</svg>
