<svg width="36" height="36" viewBox="0 0 36 36" fill="none" xmlns="http://www.w3.org/2000/svg">
<path d="M17.8404 16.5343C19.0127 16.5343 20.1587 16.1867 21.1334 15.5354C22.1082 14.884 22.8678 13.9583 23.3164 12.8752C23.765 11.7921 23.8823 10.6003 23.6535 9.4505C23.4247 8.30072 22.8601 7.24462 22.0311 6.41575C21.202 5.58689 20.1458 5.02248 18.996 4.79392C17.8462 4.56536 16.6544 4.6829 15.5714 5.13169C14.4884 5.58048 13.5628 6.34036 12.9116 7.31522C12.2605 8.29008 11.9131 9.43614 11.9133 10.6085C11.9152 12.1797 12.5403 13.6861 13.6515 14.797C14.7627 15.9079 16.2691 16.5327 17.8404 16.5343ZM17.8404 7.08052C18.5382 7.08052 19.2203 7.28743 19.8004 7.67508C20.3806 8.06274 20.8328 8.61372 21.0998 9.25837C21.3668 9.90302 21.4367 10.6124 21.3005 11.2967C21.1644 11.9811 20.8284 12.6097 20.335 13.1031C19.8416 13.5965 19.213 13.9325 18.5287 14.0686C17.8443 14.2047 17.135 14.1349 16.4903 13.8678C15.8457 13.6008 15.2947 13.1486 14.907 12.5685C14.5194 11.9883 14.3125 11.3062 14.3125 10.6085C14.3137 9.67318 14.6858 8.77657 15.3472 8.11523C16.0085 7.45389 16.9051 7.08179 17.8404 7.08052Z" fill="black"/>
<path d="M6.64357 20.0176C7.54513 20.0176 8.42644 19.7503 9.17606 19.2494C9.92568 18.7485 10.5099 18.0366 10.8549 17.2037C11.2 16.3707 11.2902 15.4542 11.1143 14.57C10.9385 13.6857 10.5043 12.8735 9.86682 12.236C9.22932 11.5985 8.4171 11.1644 7.53286 10.9885C6.64863 10.8126 5.73209 10.9029 4.89916 11.2479C4.06623 11.5929 3.35431 12.1771 2.85343 12.9268C2.35255 13.6764 2.08521 14.5577 2.08521 15.4592C2.08521 16.6682 2.56546 17.8276 3.42032 18.6825C4.27518 19.5374 5.43462 20.0176 6.64357 20.0176ZM6.64357 13.3C7.07062 13.3 7.48809 13.4267 7.84317 13.6639C8.19825 13.9012 8.47501 14.2384 8.63843 14.6329C8.80186 15.0275 8.84462 15.4616 8.76131 15.8805C8.67799 16.2993 8.47235 16.6841 8.17037 16.986C7.8684 17.288 7.48366 17.4937 7.06481 17.577C6.64596 17.6603 6.21182 17.6175 5.81727 17.4541C5.42272 17.2907 5.0855 17.0139 4.84824 16.6588C4.61098 16.3038 4.48434 15.8863 4.48434 15.4592C4.48434 14.8866 4.71183 14.3374 5.11677 13.9324C5.5217 13.5275 6.07091 13.3 6.64357 13.3Z" fill="black"/>
<path d="M29.0362 20.0176C29.9377 20.0176 30.819 19.7503 31.5686 19.2494C32.3183 18.7485 32.9025 18.0366 33.2475 17.2037C33.5925 16.3707 33.6828 15.4542 33.5069 14.57C33.331 13.6857 32.8969 12.8735 32.2594 12.236C31.6219 11.5985 30.8097 11.1644 29.9254 10.9885C29.0412 10.8126 28.1247 10.9029 27.2917 11.2479C26.4588 11.5929 25.7469 12.1771 25.246 12.9268C24.7451 13.6764 24.4778 14.5577 24.4778 15.4592C24.4778 16.6682 24.958 17.8276 25.8129 18.6825C26.6678 19.5374 27.8272 20.0176 29.0362 20.0176ZM29.0362 13.3C29.4632 13.3 29.8807 13.4267 30.2358 13.6639C30.5908 13.9012 30.8676 14.2384 31.031 14.6329C31.1944 15.0275 31.2372 15.4616 31.1539 15.8805C31.0706 16.2993 30.8649 16.6841 30.563 16.986C30.261 17.288 29.8762 17.4937 29.4574 17.577C29.0385 17.6603 28.6044 17.6175 28.2098 17.4541C27.8153 17.2907 27.4781 17.0139 27.2408 16.6588C27.0036 16.3038 26.8769 15.8863 26.8769 15.4592C26.8769 14.8866 27.1044 14.3374 27.5093 13.9324C27.9143 13.5275 28.4635 13.3 29.0362 13.3Z" fill="black"/>
<path d="M29.1956 22.4244C28.144 22.4314 27.1107 22.7006 26.1895 23.2077C25.3136 21.8211 24.1064 20.6744 22.6767 19.8708C21.247 19.0673 19.6398 18.6323 18 18.605C16.3602 18.6323 14.753 19.0673 13.3233 19.8708C11.8936 20.6744 10.6864 21.8211 9.81054 23.2077C8.88927 22.7006 7.85602 22.4314 6.80441 22.4244C4.91737 22.5165 3.14338 23.3514 1.86974 24.7468C0.596108 26.1423 -0.0737347 27.9849 0.00645221 29.8725C0.00645221 30.1907 0.132835 30.4958 0.357798 30.7208C0.582761 30.9457 0.887876 31.0721 1.20602 31.0721C1.52417 31.0721 1.82928 30.9457 2.05425 30.7208C2.27921 30.4958 2.40559 30.1907 2.40559 29.8725C2.32697 28.6215 2.74466 27.3898 3.56811 26.4447C4.39155 25.4995 5.55436 24.917 6.80441 24.8236C7.46732 24.8286 8.11813 25.0016 8.69614 25.3262C8.13079 26.7509 7.84136 28.2701 7.84324 29.803C7.84324 30.1211 7.96962 30.4262 8.19459 30.6512C8.41955 30.8762 8.72467 31.0025 9.04281 31.0025C9.36096 31.0025 9.66607 30.8762 9.89104 30.6512C10.116 30.4262 10.2424 30.1211 10.2424 29.803C10.2424 24.9507 13.7211 21.0041 18 21.0041C22.2789 21.0041 25.7576 24.9507 25.7576 29.803C25.7576 30.1211 25.884 30.4262 26.109 30.6512C26.3339 30.8762 26.639 31.0025 26.9572 31.0025C27.2753 31.0025 27.5804 30.8762 27.8054 30.6512C28.0304 30.4262 28.1568 30.1211 28.1568 29.803C28.1586 28.2701 27.8692 26.7509 27.3039 25.3262C27.8819 25.0016 28.5327 24.8286 29.1956 24.8236C30.4456 24.917 31.6084 25.4995 32.4319 26.4447C33.2553 27.3898 33.673 28.6215 33.5944 29.8725C33.5944 30.1907 33.7208 30.4958 33.9458 30.7208C34.1707 30.9457 34.4758 31.0721 34.794 31.0721C35.1121 31.0721 35.4172 30.9457 35.6422 30.7208C35.8672 30.4958 35.9935 30.1907 35.9935 29.8725C36.0737 27.9849 35.4039 26.1423 34.1303 24.7468C32.8566 23.3514 31.0826 22.5165 29.1956 22.4244Z" fill="black"/>
</svg>
