<svg width="32" height="32" viewBox="0 0 32 32" fill="none" xmlns="http://www.w3.org/2000/svg">
<g clip-path="url(#clip0_2203_40932)">
<path d="M28.5519 0H3.44775C1.54663 0 0 1.54687 0 3.44799V28.5519C0 30.4533 1.54663 31.9999 3.44775 31.9999H28.5519C30.4533 31.9999 31.9999 30.4533 31.9999 28.5519V3.44799C31.9999 1.54687 30.4533 0 28.5519 0V0ZM3.44775 1.875H28.5519C29.4194 1.875 30.1249 2.58056 30.1249 3.44799V8.03343H1.875V3.44799C1.875 2.58056 2.58056 1.875 3.44775 1.875ZM28.5519 30.1249H3.44775C2.58056 30.1249 1.875 29.4194 1.875 28.5519V9.90843H30.1249V28.5519C30.1249 29.4194 29.4194 30.1249 28.5519 30.1249Z" fill="black"/>
<path d="M8.9707 5.8916H23.0291C23.5469 5.8916 23.9666 5.47192 23.9666 4.9541C23.9666 4.43652 23.5469 4.0166 23.0291 4.0166H8.9707C8.45312 4.0166 8.0332 4.43652 8.0332 4.9541C8.0332 5.47192 8.45312 5.8916 8.9707 5.8916V5.8916Z" fill="black"/>
<path d="M4.9541 18.9458H8.97095C9.48852 18.9458 9.90845 18.5261 9.90845 18.0083V13.9917C9.90845 13.4739 9.48852 13.0542 8.97095 13.0542H4.9541C4.43652 13.0542 4.0166 13.4739 4.0166 13.9917V18.0083C4.0166 18.5261 4.43628 18.9458 4.9541 18.9458ZM5.8916 14.9292H8.03345V17.0708H5.8916V14.9292Z" fill="black"/>
<path d="M27.0459 17.0708H12.9875C12.4697 17.0708 12.05 17.4907 12.05 18.0083C12.05 18.5261 12.4697 18.9458 12.9875 18.9458H27.0459C27.5635 18.9458 27.9834 18.5261 27.9834 18.0083C27.9834 17.4907 27.5635 17.0708 27.0459 17.0708Z" fill="black"/>
<path d="M27.0459 21.0874H4.9541C4.43652 21.0874 4.0166 21.5071 4.0166 22.0249C4.0166 22.5425 4.43652 22.9624 4.9541 22.9624H27.0459C27.5635 22.9624 27.9834 22.5425 27.9834 22.0249C27.9834 21.5071 27.5635 21.0874 27.0459 21.0874Z" fill="black"/>
<path d="M27.0459 25.104H4.9541C4.43652 25.104 4.0166 25.5237 4.0166 26.0415C4.0166 26.5593 4.43652 26.979 4.9541 26.979H27.0459C27.5635 26.979 27.9834 26.5593 27.9834 26.0415C27.9834 25.5237 27.5635 25.104 27.0459 25.104Z" fill="black"/>
<path d="M27.0459 13.0542H12.9875C12.4697 13.0542 12.05 13.4739 12.05 13.9917C12.05 14.5095 12.4697 14.9292 12.9875 14.9292H27.0459C27.5635 14.9292 27.9834 14.5095 27.9834 13.9917C27.9834 13.4739 27.5635 13.0542 27.0459 13.0542Z" fill="black"/>
</g>
<defs>
<clipPath id="clip0_2203_40932">
<rect width="32" height="32" fill="white"/>
</clipPath>
</defs>
</svg>
