<svg width="32" height="32" viewBox="0 0 32 32" fill="none" xmlns="http://www.w3.org/2000/svg">
<path d="M29.8869 26.9679H29.0791V13.8313L29.5667 14.1338C29.664 14.1943 29.7746 14.2246 29.8851 14.2246C30.2218 14.2246 30.4889 13.9509 30.4889 13.6209V10.7279C30.4889 10.5189 30.381 10.3249 30.2035 10.2149L16.3185 1.59993C16.1233 1.47906 15.8769 1.47906 15.6817 1.59993L1.79667 10.2149C1.61919 10.3249 1.51129 10.5189 1.51129 10.7279V13.6209C1.51129 13.8399 1.6301 14.0419 1.82143 14.1486C2.01247 14.2547 2.24684 14.2491 2.43346 14.1338L2.92167 13.831V26.9679H2.1133C1.77986 26.9679 1.50952 27.2382 1.50952 27.5716V29.8865C1.50952 30.2199 1.77986 30.4903 2.1133 30.4903H29.8869C30.2203 30.4903 30.4907 30.2199 30.4907 29.8865V27.5716C30.4907 27.2382 30.2203 26.9679 29.8869 26.9679ZM2.71884 11.0637L16.0001 2.8234L29.2813 11.0637V12.5357C27.9497 11.7094 34.0827 15.5148 16.3188 4.49262C16.1236 4.37175 15.8772 4.37175 15.682 4.49262C-1.35552 15.0636 4.10169 11.6777 2.71884 12.5357V11.0637ZM4.12922 13.0831C4.28324 12.9875 15.9385 5.75492 16.0001 5.71668C32.2741 15.815 26.6545 12.328 27.8715 13.0831V26.9679H25.2436V13.7641C25.2436 12.793 24.4535 12.0032 23.4824 12.0032H8.51748C7.54637 12.0032 6.75657 12.793 6.75657 13.7641V26.9679H4.12922V13.0831ZM14.4954 26.9679V23.9587H17.5048V26.9679H14.4954ZM10.2787 26.9679V23.9587H13.2878V26.9679H10.2787ZM17.5048 22.7512H14.4954V19.7417H17.5048V22.7512ZM10.2787 19.7417H13.2878V22.7512H10.2787V19.7417ZM13.2878 18.5342H10.2787V15.525H13.2878V18.5342ZM18.7124 23.9587H21.7215V26.9679H18.7124V23.9587ZM22.3253 22.7512H18.7124V19.138C18.7124 18.8045 18.442 18.5342 18.1086 18.5342H14.4954V14.9213C14.4954 14.5878 14.225 14.3175 13.8916 14.3175H9.67491C9.34148 14.3175 9.07114 14.5878 9.07114 14.9213V26.9679H7.96412V13.7641C7.96412 13.459 8.21235 13.2108 8.51748 13.2108H23.4824C23.7878 13.2108 24.0361 13.459 24.0361 13.7641V26.9679H22.929V23.3549C22.929 23.0215 22.6587 22.7512 22.3253 22.7512ZM29.2831 29.2827H2.71707V28.1754H29.2831V29.2827Z" fill="black"/>
<path d="M16.0002 11.0289C16.9713 11.0289 17.7614 10.2389 17.7614 9.26774C17.7614 8.29664 16.9713 7.50684 16.0002 7.50684C15.0291 7.50684 14.2393 8.29664 14.2393 9.26774C14.2393 10.2389 15.0291 11.0289 16.0002 11.0289ZM16.0002 8.71438C16.3003 8.71438 16.5538 8.96792 16.5538 9.26774C16.5538 9.57317 16.3056 9.8214 16.0002 9.8214C15.695 9.8214 15.4468 9.57317 15.4468 9.26774C15.4468 8.96792 15.7003 8.71438 16.0002 8.71438Z" fill="black"/>
</svg>
