<svg width="32" height="32" viewBox="0 0 32 32" fill="none" xmlns="http://www.w3.org/2000/svg">
<path d="M26.6875 7.97325V0H5.3125V7.97319L0 11.9354V28.25C0 30.3177 1.68225 32 3.75 32H28.25C30.3177 32 32 30.3177 32 28.25V11.9354L26.6875 7.97325ZM28.5508 12.4817L26.6875 13.8676V11.0919L28.5508 12.4817ZM24.1875 2.5V15.7272L16 21.8171L7.8125 15.7272V2.5H24.1875ZM5.3125 13.8676L3.44919 12.4816L5.3125 11.0919V13.8676ZM28.25 29.5H3.75C3.06075 29.5 2.5 28.9393 2.5 28.25V14.8914L16 24.9329L29.5 14.8914V28.25C29.5 28.9393 28.9393 29.5 28.25 29.5ZM14.375 8.9375H11.875C11.875 7.79419 12.3653 6.69919 13.2203 5.93325C14.0989 5.146 15.2858 4.76963 16.4765 4.90081C18.3695 5.10913 19.8943 6.62106 20.1021 8.49588C20.292 10.21 19.2912 11.4276 18.5218 12.1944C18.3289 12.3867 18.1514 12.5548 17.9948 12.7029C17.2744 13.3845 17.2502 13.4482 17.2502 13.8209V13.875H14.7502V13.8209C14.7502 12.3311 15.4916 11.6296 16.2766 10.8869C16.4292 10.7425 16.5871 10.5932 16.7569 10.4239C17.4156 9.76737 17.6728 9.27319 17.6173 8.77137C17.5373 8.04994 16.9425 7.46731 16.2029 7.38588C15.7105 7.33156 15.2437 7.47706 14.8885 7.79531C14.5573 8.09188 14.375 8.49756 14.375 8.9375ZM14.75 15.8125H17.25V18.3125H14.75V15.8125Z" fill="black"/>
</svg>
