<svg width="32" height="32" viewBox="0 0 32 32" fill="none" xmlns="http://www.w3.org/2000/svg">
<g clip-path="url(#clip0_2203_40940)">
<path d="M30.9019 18.0984C29.4397 16.6362 27.0605 16.6362 25.5994 18.0974L18.7366 24.9448C18.5908 25.0903 18.4834 25.2695 18.4236 25.4666L16.929 30.3867C16.7964 30.823 16.9121 31.2966 17.2302 31.623C17.4688 31.8674 17.7927 32.0002 18.1252 32.0002C18.2363 32.0002 18.3486 31.9854 18.4587 31.9546L23.5042 30.5571C23.7117 30.4995 23.9009 30.3894 24.0535 30.2373L30.9019 23.4019C32.3638 21.9395 32.3638 19.5605 30.9019 18.0984ZM22.52 28.2356L19.9817 28.9387L20.7246 26.4932L25.355 21.8728L27.1233 23.6409L22.52 28.2356ZM29.1348 21.6331L28.8926 21.8748L27.1248 20.1069L27.3662 19.866C27.8535 19.3787 28.6465 19.3787 29.134 19.866C29.6213 20.3535 29.6213 21.1465 29.1348 21.6331ZM14.3125 30.75C14.3125 31.4404 13.7529 32 13.0625 32H5C2.24316 32 0 29.7571 0 27V5C0 2.24292 2.24316 0 5 0H20.3682C23.1252 0 25.3682 2.24292 25.3682 5V14.625C25.3682 15.3154 24.8086 15.875 24.1182 15.875C23.4277 15.875 22.8682 15.3154 22.8682 14.625V5C22.8682 3.62158 21.7466 2.5 20.3682 2.5H5C3.62158 2.5 2.5 3.62158 2.5 5V27C2.5 28.3784 3.62158 29.5 5 29.5H13.0625C13.7529 29.5 14.3125 30.0596 14.3125 30.75ZM20.375 9.3125C20.375 10.0029 19.8154 10.5625 19.125 10.5625H15.4375C14.7471 10.5625 14.1875 10.0029 14.1875 9.3125C14.1875 8.62207 14.7471 8.0625 15.4375 8.0625H19.125C19.8154 8.0625 20.375 8.62207 20.375 9.3125ZM12.8389 6.73364L9.92139 10.2646C9.54102 10.7336 8.97803 11.0251 8.37524 11.0654C8.32739 11.0686 8.2793 11.0703 8.23145 11.0703C7.67529 11.0703 7.13428 10.8557 6.72925 10.47C6.71777 10.4592 6.70654 10.448 6.69531 10.4365L5.35449 9.05957C4.8728 8.56494 4.88354 7.77368 5.37793 7.29199C5.87256 6.8103 6.66382 6.8208 7.14551 7.31543L8.21118 8.40967L10.9114 5.14136C11.3511 4.60913 12.1392 4.53418 12.6711 4.97388C13.2034 5.41357 13.2783 6.20142 12.8389 6.73364ZM19.125 18.25H15.4375C14.7471 18.25 14.1875 17.6904 14.1875 17C14.1875 16.3096 14.7471 15.75 15.4375 15.75H19.125C19.8154 15.75 20.375 16.3096 20.375 17C20.375 17.6904 19.8154 18.25 19.125 18.25ZM12.8389 14.4133L9.92139 17.9446C9.54102 18.4133 8.97803 18.7051 8.37524 18.7451C8.32739 18.7483 8.2793 18.75 8.23145 18.75C7.67505 18.75 7.13428 18.5354 6.729 18.1497C6.71851 18.1396 6.70801 18.1294 6.69775 18.1189L5.35693 16.7495C4.87402 16.2563 4.88232 15.4648 5.37549 14.9819C5.86865 14.4988 6.66016 14.5071 7.14307 15.0005L8.21045 16.0903L10.9114 12.821C11.3511 12.2888 12.1392 12.2141 12.6711 12.6536C13.2034 13.0933 13.2783 13.8811 12.8389 14.4133ZM12.8389 21.9758L9.92139 25.5071C9.54102 25.9758 8.97803 26.2676 8.37524 26.3076C8.32739 26.3108 8.2793 26.3125 8.23145 26.3125C7.67505 26.3125 7.13428 26.0979 6.729 25.7122C6.71851 25.7021 6.70801 25.6919 6.69775 25.6814L5.35693 24.312C4.87402 23.8188 4.88232 23.0273 5.37549 22.5444C5.86865 22.0613 6.66016 22.0696 7.14307 22.563L8.21045 23.6528L10.9114 20.3835C11.3511 19.8513 12.1392 19.7766 12.6711 20.2161C13.2034 20.6558 13.2783 21.4436 12.8389 21.9758Z" fill="black"/>
</g>
<defs>
<clipPath id="clip0_2203_40940">
<rect width="32" height="32.0001" fill="white"/>
</clipPath>
</defs>
</svg>
